<?xml version="1.0" encoding="utf-8"?>
<!-- Generator: Adobe Illustrator 16.0.0, SVG Export Plug-In . SVG Version: 6.00 Build 0)  -->
<svg version="1.2" baseProfile="tiny" id="Layer_1" xmlns="http://www.w3.org/2000/svg" xmlns:xlink="http://www.w3.org/1999/xlink"
	 x="0px" y="0px" width="148px" height="32px" viewBox="0 0 148 32" xml:space="preserve">
<g>
	<g>
		<g>
			<g>
				<path fill="#FFFFFF" d="M57.506,13.579c-1.239,0-2.282,0.271-3.126,1.434h-0.067l0.438-1.332h-2.11l-3.372,12.676h2.108
					l1.333-5.008h0.083c0.166,1.079,1.232,1.282,2.304,1.282c3.015,0,3.809-1.669,4.5-4.265
					C60.319,15.654,60.771,13.579,57.506,13.579z M57.488,18.367c-0.592,2.225-1.123,2.646-2.58,2.646
					c-1.824,0-1.908-0.76-1.405-2.646c0.562-2.108,0.793-3.169,2.953-3.169C58.382,15.198,58.022,16.361,57.488,18.367z"/>
				<polygon fill="#FFFFFF" points="63.259,9.888 59.895,22.531 62.004,22.531 65.369,9.888 				"/>
				<path fill="#FFFFFF" d="M69.844,13.579c-2.009,0-3.794,0.102-4.479,2.68h2.108c0.305-1.145,1.064-1.229,1.985-1.229
					c1.757,0,1.739,0.504,1.358,1.938l-0.304,1.146h-0.067c-0.238-0.994-1.287-1.01-2.36-1.01c-2.176,0-3.438,0.59-4.003,2.713
					c-0.638,2.394,0.54,2.815,2.532,2.815c1.02,0,2.319-0.034,3.052-1.214h0.05l-0.38,1.113h2.109l1.476-5.547
					C73.712,14.019,72.656,13.579,69.844,13.579z M70.059,19.816c-0.335,1.266-1.183,1.365-2.306,1.365
					c-1.422,0-1.892-0.117-1.56-1.365c0.336-1.264,1.19-1.264,2.263-1.264C69.491,18.553,70.386,18.586,70.059,19.816z"/>
				<path fill="#FFFFFF" d="M80.19,13.681l-3.712,7.534h-0.033l-0.223-7.534h-2.176l0.541,8.85h1.021
					c-0.457,1.027-1,2.309-2.323,2.309c-0.15,0-0.293-0.034-0.44-0.051l-0.424,1.602c0.295,0.018,0.583,0.066,0.885,0.066
					c2.461,0,3.28-1.566,4.3-3.572l4.726-9.204H80.19z"/>
				<path fill="#FFFFFF" d="M89.445,18.502c1.026-3.86,0.822-4.923-2.792-4.923c-3.55,0-4.419,1.382-5.264,4.552
					c-0.909,3.422-0.511,4.501,2.854,4.501c2.512,0,4.137-0.136,4.878-2.917h-2.11c-0.35,1.316-1.165,1.299-2.337,1.299
					c-1.893,0-1.78-0.607-1.274-2.512H89.445z M86.223,15.198c1.723,0,1.957,0.135,1.472,1.956H83.76
					C84.178,15.585,84.397,15.198,86.223,15.198z"/>
				<path fill="#FFFFFF" d="M95.751,17.068h1.978l0.188-0.707c0.443-1.669,0.287-2.782-1.57-2.782c-1.021,0-2.002,0.287-2.68,1.264
					h-0.084l0.359-1.162h-2.059l-2.355,8.85h2.109l1.453-5.463c0.271-1.146,0.832-1.871,2.088-1.871
					c0.988,0,0.932,0.522,0.695,1.416L95.751,17.068z"/>
				<path fill="#FFFFFF" d="M102.269,17.188c-1.818-0.084-2.044-0.119-1.811-0.995c0.31-1.163,1.079-1.163,2.201-1.163
					c1.121,0,1.675,0,1.392,1.061h2.109c0.659-2.478-1.391-2.512-3.115-2.512c-2.26,0-4.015,0.051-4.661,2.479
					c-0.601,2.259-0.132,2.696,3.087,2.748c2.117,0.033,2.064,0.421,1.857,1.196c-0.323,1.213-1.051,1.18-2.307,1.18
					c-1.557,0-1.817-0.15-1.511-1.433h-2.108c-0.768,2.883,0.84,2.883,3.233,2.883c2.228,0,4.165-0.236,4.802-2.63
					C106.2,17.137,104.318,17.288,102.269,17.188z"/>
				<polygon fill="#FFFFFF" points="105.766,22.531 107.875,22.531 108.49,20.221 106.38,20.221 				"/>
				<path fill="#FFFFFF" d="M118.297,16.783c0.745-2.798-0.537-3.204-3.15-3.204c-3.447,0-4.315,1.434-5.141,4.534
					c-0.951,3.574-0.498,4.519,2.732,4.519c2.963,0,4.154-0.573,4.926-3.474h-2.109c-0.413,1.551-0.661,1.855-2.386,1.855
					c-1.857,0-1.64-0.691-1.054-2.9c0.605-2.275,0.793-2.916,2.602-2.916c1.473,0,1.828,0.236,1.471,1.585H118.297z"/>
				<path fill="#FFFFFF" d="M124.121,13.579c-3.667,0-4.427,1.096-5.342,4.534c-0.912,3.422-0.734,4.519,2.933,4.519
					c3.665,0,4.426-1.097,5.337-4.519C127.964,14.675,127.787,13.579,124.121,13.579z M124.935,18.131
					c-0.628,2.36-0.919,2.883-2.792,2.883c-1.875,0-1.888-0.522-1.26-2.883c0.637-2.394,0.932-2.933,2.807-2.933
					S125.572,15.737,124.935,18.131z"/>
				<path fill="#FFFFFF" d="M139.957,13.579c-1.172,0-2.468,0.338-3.197,1.568h-0.066c0.107-1.281-1.09-1.568-2.194-1.568
					c-1.105,0-2.361,0.253-3.13,1.382h-0.066l0.34-1.28H129.6l-2.354,8.85h2.11l1.327-4.99c0.417-1.567,0.958-2.343,2.665-2.343
					c1.156,0,1.307,0.438,1.061,1.551l-1.538,5.783h2.11l1.326-4.99c0.418-1.567,0.959-2.343,2.668-2.343
					c1.154,0,1.305,0.438,1.06,1.551l-1.539,5.783h2.109l1.593-5.985C142.776,14.371,142.234,13.579,139.957,13.579z"/>
				<g>
					<polygon fill="#FFFFFF" points="141.71,21.635 142.037,21.635 142.037,22.531 142.259,22.531 142.259,21.635 142.584,21.635 
						142.584,21.441 141.71,21.441 					"/>
					<polygon fill="#FFFFFF" points="143.685,21.441 143.422,22.152 143.417,22.152 143.164,21.441 142.783,21.441 142.783,22.531 
						143.003,22.531 143.003,21.664 143.006,21.664 143.312,22.531 143.525,22.531 143.838,21.664 143.843,21.664 143.843,22.531 
						144.064,22.531 144.064,21.441 					"/>
				</g>
			</g>
			<g>
				<path fill="#FFFFFF" d="M39.443,13.579c-2.008,0-3.792,0.102-4.479,2.68h2.109c0.305-1.145,1.064-1.229,1.984-1.229
					c1.758,0,1.742,0.504,1.359,1.938l-0.305,1.146h-0.065c-0.239-0.994-1.289-1.01-2.36-1.01c-2.176,0-3.438,0.59-4.004,2.713
					c-0.636,2.394,0.54,2.815,2.533,2.815c1.021,0,2.319-0.034,3.053-1.214h0.049l-0.38,1.113h2.109l1.477-5.547
					C43.311,14.019,42.257,13.579,39.443,13.579z M39.659,19.816c-0.337,1.266-1.184,1.365-2.306,1.365
					c-1.422,0-1.894-0.117-1.562-1.365c0.337-1.264,1.191-1.264,2.261-1.264C39.091,18.553,39.987,18.586,39.659,19.816z"/>
				<polygon fill="#FFFFFF" points="46.102,9.888 42.736,22.531 44.845,22.531 48.21,9.888 				"/>
				<polygon fill="#FFFFFF" points="49.9,9.888 46.536,22.531 48.646,22.531 52.01,9.888 				"/>
			</g>
		</g>
	</g>
	<g>
		<g>
			<path fill="#FFFFFF" d="M19.61,17.168c0.536,0.606,1.035,1.215,1.499,1.815c0.487-0.519,0.954-1.038,1.403-1.554
				c-0.477-0.596-0.991-1.201-1.535-1.808C20.544,16.131,20.089,16.647,19.61,17.168z"/>
			<path fill="#FFFFFF" d="M6.564,25.755c-1.235-1.244,1.774-6.303,6.753-11.395c-0.215-0.171-0.429-0.336-0.64-0.493
				C6.238,20.469,2.527,27.211,4.362,29.06c1.358,1.368,5.386-0.327,10.044-3.931h0c0.208-0.16,0.417-0.324,0.626-0.492
				c1.441-1.154,2.934-2.481,4.418-3.95c-0.439-0.598-0.93-1.212-1.464-1.831C12.892,23.927,7.81,27.008,6.564,25.755z"/>
			<path fill="#FFFFFF" d="M28.549,4.706c-0.983-0.991-3.371-0.372-6.382,1.414L21.133,5.75l-0.965-2.738l-0.96,2.738L16.486,6.72
				l2.721,0.968l0.96,2.738l0.858-2.437c0.512-0.308,0.995-0.57,1.439-0.776l1.382-0.492c0.645-0.141,1.134-0.084,1.42,0.203
				c0.849,0.854-0.306,3.508-2.723,6.736c0.556,0.606,1.087,1.213,1.59,1.817C28.062,10.51,29.971,6.137,28.549,4.706z"/>
		</g>
		<g>
			<path fill="#FFFFFF" d="M9.331,18.962L8.83,19.645c0.712,0.855,1.493,1.715,2.335,2.563c0.067,0.067,0.134,0.134,0.202,0.2
				c0.217-0.149,0.44-0.308,0.664-0.471c-0.102-0.098-0.202-0.196-0.302-0.299C10.844,20.747,10.039,19.844,9.331,18.962z"/>
			<path fill="#FFFFFF" d="M4.934,3.988C4.049,4.879,4.096,6.573,4.89,8.711c-0.066,0.05-0.129,0.104-0.187,0.163
				c-1.504,1.514,0.068,5.66,3.561,10.073c0.171-0.225,0.346-0.451,0.527-0.678c-2.28-3.02-3.32-5.67-2.396-6.602
				c1.264-1.271,5.697,1.132,9.906,5.369c4.208,4.236,6.594,8.701,5.332,9.972c-0.925,0.933-3.558-0.114-6.555-2.409
				c-0.227,0.181-0.451,0.357-0.674,0.529c4.383,3.517,8.5,5.1,10.003,3.587c0.058-0.058,0.111-0.12,0.161-0.188
				c2.125,0.802,3.807,0.848,4.692-0.044c2.227-2.241-1.412-9.543-8.132-16.306C14.411,5.413,7.16,1.747,4.934,3.988z M26.22,26.636
				c-0.289,0.292-0.715,0.426-1.244,0.423c-0.005-2.681-2.715-7.332-7.032-11.676c-4.314-4.345-8.935-7.074-11.595-7.079
				C6.344,7.77,6.48,7.343,6.77,7.053c1.595-1.606,7.242,1.475,12.614,6.882C24.754,19.344,27.814,25.029,26.22,26.636z"/>
		</g>
	</g>
</g>
</svg>
