<?xml version="1.0" encoding="utf-8"?>
<!-- Generator: Adobe Illustrator 16.2.1, SVG Export Plug-In . SVG Version: 6.00 Build 0)  -->
<svg version="1.2" baseProfile="tiny" id="Layer_1" xmlns="http://www.w3.org/2000/svg" xmlns:xlink="http://www.w3.org/1999/xlink"
	 x="0px" y="0px" width="140.172px" height="26.52px" viewBox="0 0 140.172 26.52" xml:space="preserve">
<g>
	<g>
		<g>
			<g>
				<path fill="#FFFFFF" d="M53.614,10.567c-1.239,0-2.282,0.271-3.126,1.434H50.42l0.438-1.332h-2.11l-3.372,12.676h2.108
					l1.333-5.007H48.9c0.166,1.078,1.232,1.281,2.304,1.281c3.015,0,3.809-1.668,4.5-4.265
					C56.426,12.642,56.878,10.567,53.614,10.567z M53.595,15.354c-0.592,2.225-1.123,2.646-2.58,2.646
					c-1.824,0-1.908-0.759-1.405-2.646c0.562-2.107,0.793-3.169,2.953-3.169C54.489,12.186,54.129,13.349,53.595,15.354z"/>
				<polygon fill="#FFFFFF" points="59.366,6.875 56.002,19.519 58.111,19.519 61.477,6.875 				"/>
				<path fill="#FFFFFF" d="M65.952,10.567c-2.009,0-3.794,0.102-4.479,2.68h2.108c0.305-1.145,1.064-1.229,1.985-1.229
					c1.757,0,1.739,0.504,1.358,1.938l-0.304,1.146h-0.067c-0.238-0.995-1.287-1.011-2.36-1.011c-2.176,0-3.438,0.59-4.003,2.714
					c-0.638,2.393,0.54,2.814,2.532,2.814c1.02,0,2.319-0.033,3.052-1.214h0.05l-0.38,1.113h2.109l1.476-5.546
					C69.819,11.006,68.764,10.567,65.952,10.567z M66.166,16.805c-0.335,1.265-1.183,1.365-2.306,1.365
					c-1.422,0-1.892-0.118-1.56-1.365c0.336-1.265,1.19-1.265,2.263-1.265C65.599,15.54,66.493,15.574,66.166,16.805z"/>
				<path fill="#FFFFFF" d="M76.298,10.669l-3.712,7.534h-0.033l-0.223-7.534h-2.176l0.542,8.85h1.021
					c-0.457,1.027-1,2.31-2.323,2.31c-0.15,0-0.293-0.035-0.44-0.052l-0.424,1.603c0.295,0.017,0.583,0.066,0.885,0.066
					c2.461,0,3.28-1.566,4.3-3.572l4.726-9.204H76.298z"/>
				<path fill="#FFFFFF" d="M85.553,15.489c1.026-3.86,0.822-4.922-2.792-4.922c-3.55,0-4.419,1.382-5.264,4.552
					c-0.909,3.422-0.511,4.5,2.854,4.5c2.512,0,4.137-0.135,4.878-2.916h-2.11c-0.35,1.315-1.165,1.298-2.337,1.298
					c-1.893,0-1.78-0.606-1.274-2.512H85.553z M82.33,12.186c1.723,0,1.957,0.135,1.472,1.956h-3.935
					C80.285,12.573,80.505,12.186,82.33,12.186z"/>
				<path fill="#FFFFFF" d="M91.858,14.056h1.978l0.188-0.707c0.443-1.669,0.287-2.782-1.57-2.782c-1.021,0-2.002,0.287-2.68,1.264
					h-0.084l0.359-1.162H87.99l-2.355,8.85h2.109l1.453-5.462c0.271-1.146,0.832-1.871,2.088-1.871c0.988,0,0.932,0.522,0.695,1.416
					L91.858,14.056z"/>
				<path fill="#FFFFFF" d="M98.376,14.175c-1.818-0.084-2.044-0.119-1.811-0.994c0.31-1.163,1.079-1.163,2.201-1.163
					c1.121,0,1.675,0,1.392,1.061h2.109c0.659-2.478-1.391-2.512-3.115-2.512c-2.26,0-4.015,0.051-4.661,2.479
					c-0.601,2.259-0.132,2.697,3.087,2.748c2.117,0.033,2.064,0.422,1.857,1.196c-0.323,1.214-1.051,1.181-2.307,1.181
					c-1.557,0-1.817-0.151-1.511-1.434H93.51c-0.768,2.883,0.84,2.883,3.233,2.883c2.228,0,4.165-0.236,4.802-2.63
					C102.308,14.125,100.426,14.276,98.376,14.175z"/>
				<polygon fill="#FFFFFF" points="101.873,19.519 103.982,19.519 104.598,17.209 102.487,17.209 				"/>
				<path fill="#FFFFFF" d="M114.404,13.771c0.745-2.798-0.537-3.204-3.15-3.204c-3.447,0-4.315,1.434-5.141,4.535
					c-0.951,3.574-0.498,4.518,2.732,4.518c2.963,0,4.154-0.573,4.926-3.473h-2.109c-0.413,1.551-0.661,1.854-2.386,1.854
					c-1.857,0-1.64-0.69-1.054-2.899c0.605-2.275,0.793-2.916,2.602-2.916c1.473,0,1.828,0.236,1.471,1.585H114.404z"/>
				<path fill="#FFFFFF" d="M120.229,10.567c-3.667,0-4.427,1.096-5.342,4.535c-0.912,3.422-0.734,4.518,2.933,4.518
					c3.665,0,4.426-1.096,5.337-4.518C124.071,11.663,123.895,10.567,120.229,10.567z M121.042,15.119
					c-0.628,2.359-0.919,2.882-2.792,2.882c-1.875,0-1.888-0.522-1.26-2.882c0.637-2.394,0.932-2.934,2.807-2.934
					S121.68,12.725,121.042,15.119z"/>
				<path fill="#FFFFFF" d="M136.064,10.567c-1.172,0-2.468,0.338-3.197,1.568h-0.066c0.107-1.281-1.09-1.568-2.194-1.568
					c-1.105,0-2.361,0.253-3.13,1.382h-0.066l0.34-1.28h-2.043l-2.354,8.85h2.11l1.327-4.99c0.417-1.567,0.958-2.343,2.665-2.343
					c1.156,0,1.307,0.438,1.061,1.551l-1.538,5.782h2.11l1.326-4.99c0.418-1.567,0.959-2.343,2.668-2.343
					c1.154,0,1.305,0.438,1.06,1.551l-1.539,5.782h2.109l1.593-5.984C138.884,11.359,138.342,10.567,136.064,10.567z"/>
				<g>
					<polygon fill="#FFFFFF" points="137.817,18.623 138.145,18.623 138.145,19.519 138.366,19.519 138.366,18.623 138.691,18.623 
						138.691,18.43 137.817,18.43 					"/>
					<polygon fill="#FFFFFF" points="139.792,18.43 139.529,19.141 139.524,19.141 139.271,18.43 138.891,18.43 138.891,19.519 
						139.11,19.519 139.11,18.651 139.113,18.651 139.42,19.519 139.633,19.519 139.945,18.651 139.95,18.651 139.95,19.519 
						140.172,19.519 140.172,18.43 					"/>
				</g>
			</g>
			<g>
				<path fill="#FFFFFF" d="M35.55,10.567c-2.008,0-3.792,0.102-4.479,2.68h2.109c0.305-1.145,1.064-1.229,1.984-1.229
					c1.758,0,1.742,0.504,1.359,1.938l-0.305,1.146h-0.065c-0.239-0.995-1.289-1.011-2.36-1.011c-2.176,0-3.438,0.59-4.004,2.714
					c-0.636,2.393,0.54,2.814,2.533,2.814c1.021,0,2.319-0.033,3.053-1.214h0.049l-0.38,1.113h2.109l1.477-5.546
					C39.418,11.006,38.364,10.567,35.55,10.567z M35.767,16.805c-0.337,1.265-1.184,1.365-2.306,1.365
					c-1.422,0-1.894-0.118-1.562-1.365c0.337-1.265,1.191-1.265,2.261-1.265C35.198,15.54,36.094,15.574,35.767,16.805z"/>
				<polygon fill="#FFFFFF" points="42.209,6.875 38.843,19.519 40.953,19.519 44.318,6.875 				"/>
				<polygon fill="#FFFFFF" points="46.008,6.875 42.644,19.519 44.753,19.519 48.117,6.875 				"/>
			</g>
		</g>
	</g>
	<g>
		<g>
			<path fill="#FFFFFF" d="M15.717,14.155c0.536,0.607,1.035,1.215,1.499,1.815c0.487-0.518,0.954-1.037,1.403-1.553
				c-0.477-0.596-0.991-1.201-1.535-1.808C16.652,13.119,16.197,13.635,15.717,14.155z"/>
			<path fill="#FFFFFF" d="M2.671,22.742c-1.235-1.244,1.774-6.303,6.753-11.395c-0.215-0.171-0.429-0.336-0.64-0.493
				c-6.439,6.601-10.15,13.344-8.315,15.192c1.358,1.369,5.386-0.326,10.044-3.931h0c0.208-0.159,0.417-0.324,0.626-0.491
				c1.441-1.154,2.934-2.482,4.418-3.951c-0.439-0.598-0.93-1.211-1.464-1.831C8.999,20.914,3.917,23.996,2.671,22.742z"/>
			<path fill="#FFFFFF" d="M24.656,1.693c-0.983-0.991-3.371-0.372-6.382,1.414L17.24,2.738L16.275,0l-0.96,2.738l-2.721,0.969
				l2.721,0.968l0.96,2.738l0.858-2.437c0.512-0.308,0.995-0.57,1.439-0.776l1.382-0.492c0.645-0.141,1.134-0.084,1.42,0.203
				c0.849,0.854-0.306,3.508-2.723,6.736c0.556,0.606,1.087,1.213,1.59,1.817C24.169,7.498,26.078,3.125,24.656,1.693z"/>
		</g>
		<g>
			<path fill="#FFFFFF" d="M5.438,15.949l-0.501,0.683c0.712,0.855,1.493,1.716,2.335,2.563c0.067,0.068,0.134,0.134,0.202,0.201
				c0.217-0.15,0.44-0.309,0.664-0.471c-0.102-0.099-0.202-0.197-0.302-0.299C6.952,17.734,6.146,16.832,5.438,15.949z"/>
			<path fill="#FFFFFF" d="M1.041,0.976C0.156,1.867,0.204,3.561,0.998,5.699c-0.066,0.05-0.129,0.104-0.187,0.163
				c-1.504,1.514,0.068,5.66,3.561,10.072c0.171-0.225,0.346-0.45,0.527-0.677c-2.28-3.02-3.32-5.671-2.396-6.602
				c1.264-1.271,5.697,1.132,9.906,5.369c4.208,4.237,6.594,8.702,5.332,9.971c-0.925,0.934-3.558-0.113-6.555-2.408
				c-0.227,0.18-0.451,0.356-0.674,0.528c4.383,3.517,8.5,5.101,10.003,3.587c0.058-0.058,0.111-0.12,0.161-0.188
				c2.125,0.803,3.807,0.848,4.692-0.044c2.227-2.241-1.412-9.542-8.132-16.306C10.519,2.401,3.268-1.266,1.041,0.976z
				 M22.327,23.623c-0.289,0.292-0.715,0.426-1.244,0.424c-0.005-2.682-2.715-7.332-7.032-11.676
				C9.737,8.026,5.117,5.297,2.456,5.292C2.452,4.758,2.588,4.331,2.877,4.041c1.595-1.606,7.242,1.475,12.614,6.882
				C20.861,16.332,23.922,22.018,22.327,23.623z"/>
		</g>
	</g>
</g>
</svg>
